# xmcd
#
# Track frame offsets:
#	150
#	21869
#	41815
#	57320
#	67686
#	86317
#	103287
#	126413
#	144712
#	158413
#	170046
#	182631
#	194908
#	207916
#	217858
#	231260
#
# Disc length: 3245 seconds
#
# Revision: 1
# Processed by: cddbd v1.5.2PL0 Copyright (c) Steve Scherf et al.
# Submitted via: audiograbber 1.83.01
#
DISCID=e90cab10
DTITLE=Jonny Hill - Schlager Platin Edition
DYEAR=1900
DGENRE=
TTITLE0=Ruf Teddybär Eins-vier
TTITLE1=Dein erster Brief
TTITLE2=Lucille
TTITLE3=Heute Nacht, da brauche ich Dich
TTITLE4=Sylvias Mutter
TTITLE5=Rosen für Mama
TTITLE6=Tommy und Strolch
TTITLE7=Wann wirds mal wieder richtig Sommer
TTITLE8=Der Junge mit der Mundharmonika
TTITLE9=Ich komm nicht los von dir
TTITLE10=Freunde
TTITLE11=Bist du einsam heut Nacht
TTITLE12=Ich hab dich heut Nacht so sehr vermisst
TTITLE13=Komm in meine Welt
TTITLE14=Ich wollt dir noch so viel sagen
TTITLE15=Der Zug der Heimwärts geht
EXTD=
EXTT0=
EXTT1=
EXTT2=
EXTT3=
EXTT4=
EXTT5=
EXTT6=
EXTT7=
EXTT8=
EXTT9=
EXTT10=
EXTT11=
EXTT12=
EXTT13=
EXTT14=
EXTT15=
PLAYORDER=
